<svg width="24" height="24" viewBox="0 0 24 24" fill="none" xmlns="http://www.w3.org/2000/svg">
<path d="M8.80001 9.6001C8.95914 9.6001 9.11175 9.66331 9.22428 9.77583C9.3368 9.88836 9.40001 10.041 9.40001 10.2001V17.4001C9.40001 17.5592 9.3368 17.7118 9.22428 17.8244C9.11175 17.9369 8.95914 18.0001 8.80001 18.0001C8.64088 18.0001 8.48827 17.9369 8.37575 17.8244C8.26323 17.7118 8.20001 17.5592 8.20001 17.4001V10.2001C8.20001 10.041 8.26323 9.88836 8.37575 9.77583C8.48827 9.66331 8.64088 9.6001 8.80001 9.6001V9.6001ZM11.8 9.6001C11.9591 9.6001 12.1118 9.66331 12.2243 9.77583C12.3368 9.88836 12.4 10.041 12.4 10.2001V17.4001C12.4 17.5592 12.3368 17.7118 12.2243 17.8244C12.1118 17.9369 11.9591 18.0001 11.8 18.0001C11.6409 18.0001 11.4883 17.9369 11.3757 17.8244C11.2632 17.7118 11.2 17.5592 11.2 17.4001V10.2001C11.2 10.041 11.2632 9.88836 11.3757 9.77583C11.4883 9.66331 11.6409 9.6001 11.8 9.6001V9.6001ZM15.4 10.2001C15.4 10.041 15.3368 9.88836 15.2243 9.77583C15.1118 9.66331 14.9591 9.6001 14.8 9.6001C14.6409 9.6001 14.4883 9.66331 14.3757 9.77583C14.2632 9.88836 14.2 10.041 14.2 10.2001V17.4001C14.2 17.5592 14.2632 17.7118 14.3757 17.8244C14.4883 17.9369 14.6409 18.0001 14.8 18.0001C14.9591 18.0001 15.1118 17.9369 15.2243 17.8244C15.3368 17.7118 15.4 17.5592 15.4 17.4001V10.2001Z" fill="#181741"/>
<path fill-rule="evenodd" clip-rule="evenodd" d="M19.6 6.6C19.6 6.91826 19.4736 7.22348 19.2485 7.44853C19.0235 7.67357 18.7183 7.8 18.4 7.8H17.8V18.6C17.8 19.2365 17.5471 19.847 17.0971 20.2971C16.647 20.7471 16.0365 21 15.4 21H8.2C7.56348 21 6.95303 20.7471 6.50294 20.2971C6.05286 19.847 5.8 19.2365 5.8 18.6V7.8H5.2C4.88174 7.8 4.57652 7.67357 4.35147 7.44853C4.12643 7.22348 4 6.91826 4 6.6V5.4C4 5.08174 4.12643 4.77652 4.35147 4.55147C4.57652 4.32643 4.88174 4.2 5.2 4.2H9.4C9.4 3.88174 9.52643 3.57652 9.75147 3.35147C9.97652 3.12643 10.2817 3 10.6 3H13C13.3183 3 13.6235 3.12643 13.8485 3.35147C14.0736 3.57652 14.2 3.88174 14.2 4.2H18.4C18.7183 4.2 19.0235 4.32643 19.2485 4.55147C19.4736 4.77652 19.6 5.08174 19.6 5.4V6.6ZM7.1416 7.8L7 7.8708V18.6C7 18.9183 7.12643 19.2235 7.35147 19.4485C7.57652 19.6736 7.88174 19.8 8.2 19.8H15.4C15.7183 19.8 16.0235 19.6736 16.2485 19.4485C16.4736 19.2235 16.6 18.9183 16.6 18.6V7.8708L16.4584 7.8H7.1416ZM5.2 6.6V5.4H18.4V6.6H5.2Z" fill="#181741"/>
</svg>
