<svg width="24" height="24" viewBox="0 0 24 24" fill="none" xmlns="http://www.w3.org/2000/svg">
<path d="M10 16.5858H14C14.2652 16.5858 14.5196 16.4804 14.7071 16.2929C14.8946 16.1054 15 15.851 15 15.5858V10.5858H16.586C16.7838 10.5857 16.977 10.5271 17.1415 10.4172C17.3059 10.3073 17.434 10.1511 17.5097 9.96844C17.5853 9.78574 17.6052 9.58471 17.5666 9.39076C17.528 9.1968 17.4328 9.01864 17.293 8.87879L12.707 4.29279C12.5195 4.10532 12.2652 4 12 4C11.7348 4 11.4805 4.10532 11.293 4.29279L6.707 8.87879C6.56719 9.01864 6.47198 9.1968 6.43342 9.39076C6.39485 9.58471 6.41465 9.78574 6.49032 9.96844C6.56599 10.1511 6.69413 10.3073 6.85854 10.4172C7.02295 10.5271 7.21625 10.5857 7.414 10.5858H9V15.5858C9 15.851 9.10536 16.1054 9.29289 16.2929C9.48043 16.4804 9.73478 16.5858 10 16.5858ZM6 18.5858H18C18.2652 18.5858 18.5196 18.6911 18.7071 18.8787C18.8946 19.0662 19 19.3206 19 19.5858C19 19.851 18.8946 20.1054 18.7071 20.2929C18.5196 20.4804 18.2652 20.5858 18 20.5858H6C5.73478 20.5858 5.48043 20.4804 5.29289 20.2929C5.10536 20.1054 5 19.851 5 19.5858C5 19.3206 5.10536 19.0662 5.29289 18.8787C5.48043 18.6911 5.73478 18.5858 6 18.5858Z" fill="#181741"/>
</svg>
